<svg version="1.2" xmlns="http://www.w3.org/2000/svg" width="224" height="105"><style>.s1{fill:0}</style><g id="Group 9"><path id="Path 267" fill-rule="evenodd" d="M177.9 22.4v.6c0 .6-.7.6-.7.6 0 1.4-.6 1.4-.6 1.4-.6 1.2-1.3 1.2-1.3 2.6l-.7.6h-.6c-1.3 3.2-3.9 5.1-5.8 7.7-3.3 2-5.2 3.9-9.1 5.8 0 0 0 .7-.7 1.4-1.2 0-1.2-2-1.9-3.3-.6-.7-1.3-1.9-1.9-3.3-.7-2.5-1.9-4.4-3.3-6.4 0-.6-.6.7-.6.7-.6-1.3-.6-2.6-.6-2.6s0-1.3-.7-1.3l-.7-1.3h-1.2c-.7 0-2 1.3-2.6 2-2.6 2.5-5.9 5.7-8.5 8.3-1.3 2-3.3 3.2-5.2 5.2-.7 1.3-1.3 2-2.6 3.2-.6.7-1.9 1.4-2.6 2.6-1.9 1.4-3.2 3.3-5.1 4.6-1.9 2-3.9 2.6-5.9 4.5l-.6-.6-.6.7.4.4q-.6.5-1.4 1l-.4-.2s-.4 0-.2.7l-1 .8v-.1h-1.4c0 .6-.6.6-.6.6v.6q.2.1.3.2c-1.8 1.3-3.6 3.1-6.1 4.3-.7 1.3-2 2.6-3.3 3.9h-.7c-1.2.7-2.5 1.9-3.2 3.3l-1.9 1.2c0 .7-.6 1.4-.6 1.4-2 1.9-3.9 3.2-5.2 4.5-.6.7-.6 1.3-1.3 1.3-.7.6-.7 1.3-.7 2-.6 0-1.2.6-1.9.6-.7 2-1.9 3.2-3.3 3.9-.6 1.3-1.9 2.6-2.6 3.9-1.2 1.3-1.9 3.2-2.6 4.5-.6.7-1.2 1.3-1.2 1.3-.7 1.3-.7 2.6-1.4 3.2-.6.7-1.2 1.9-1.9 3.3-.7.6-1.3 0-1.3 0-3.2 1.9-7.1 2.6-11 1.9-1.3-1.3-3.9-1.3-4.5-3.3 0-1.9 1.3-2.5 2-3.8 1.2-.7 1.9-1.9 1.9-1.9s.6-1.3 1.3-2c.6-.6 1.9-1.9 2.5-3.2 1.3-1.3 2.6-2 2.6-3.2 2-.7 2.6-2 4.6-3.3 0 0 .6-.7.6-1.3 1.3-.6 2-1.3 2.6-2.6 2.6-2 5.8-3.9 8.4-6.5v-.7c1.4-.6 2.6-1.9 3.3-2.6 2.6-1.2 3.9-3.2 5.2-4.5 1.3-1.3 1.9-1.9 3.9-3.2 0 0 .6-1.3 1.2-.6.7-2 2-2.6 3.3-3.9.6-1.3 1.9-1.9 2.6-3.3.5-.3.8-.5 1-.7-1.2-.6-2.4-1.3-3.6-2.5-1.3-1.3-3.3-3.2-5.2-4.6-.6-1.2-1.9-1.9-1.9-1.9-2-1.9-2.6-2.6-3.2-3.9-2-2-3.3-3.2-5.2-5.2-2.6-2.6-5.9-5.8-8.5-8.3-.7-.7-1.9-2-1.9-2h-2c-.6 0 0 1.3-.6 1.3l-.7.7v2.5c-.7.7-.7-.6-1.3 0-1.3 2-2 3.9-3.2 6.4l-1.3 2.6c-1.3 2-.7 4-2.6 4-.6-.7 0-1.4 0-1.4-3.8-1.9-6.4-3.8-9-5.8-2.6-2.6-5.2-4.5-6.6-7.7h-.6l-.6-.6c0-1.4-.7-1.4-1.4-2 0 0 0-.6-.6-1.3 0 0 0-.7-.6-1.3v-.6h.6c1.3 0 2-1.4 3.9-1.4l.7-.6c-.7.6 0 .6 0 .6l.6-.6s.6 0 1.3-.6c1.3-.7 1.9-1.4 3.9-1.4l.6-1.9c.7.7 1.4 0 1.4-.7.6 0 .6.7 1.2 0 .7-.6 1.4-.6 2-1.2 0 0 .6.6 1.3 0-.7-.7-.7-1.4-.7-1.4 2-3.2 3.9-4.5 5.8-6.4 1.9-1.4 3.9-7.1 7.1-4.6.7-.6 1.4-1.3 2-1.3 0 0 .6.7 1.3.7h.7c.6.6.6 1.3 1.2 1.3 0 .6.7 1.3 1.4 1.3v.6c1.2 1.3 1.9 2.6 3.2 3.2l.6.7C82 10 82.7 10 82.7 10c.6 2.6-.7 2.6-.7 3.9 1.3 1.3 3.3 2.6 4.5 4.5.7.7 1.4 1.4 2 2.6 1.3.7 1.9 1.4 1.9 2.6 1.3.7 2 1.4 2 2.6 1.3 0 1.9 1.4 1.9 1.4 1.3 1.2 2.6 1.9 3.2 3.8 1.3.7 1.9 1.3 2.6 2.6.7.6.7 1.3.7 1.3.6 1.2 1.9 1.9 2.6 2.6 0 0 0 1.2.6 1.2 0 0 0 .7.6 1.4l1.4 1.9c.6 0 .6.7.6.7l2 1.9c.6.7.6 1.3.6 1.3l-.6.6h-1.4c-.6-.6-.6-1.9-1.9-1.9 0 1.3 1.3 1.9 1.3 1.9v2c-.6-.6-.6-1.3-.6-1.3-1.4-1.3-2.6-1.9-3.3-3.3v-.6s-1.3 0-.7-.6c.7-1.4.7.6 2 0 .6-.7-1.3-.7-1.3-.7-1.3-1.3-2.6-2.6-4.5-2.6 1.2 3.3 4.5 4.5 5.8 8.5.6.5 1.2 1.1 1.8 2.1l.2-.2c0-.7.6-.7.6-.7l.6-.6c.7-.6 2-1.3 2-1.3.6-1.3.6-1.9 1.3-2.6l1.9-1.9c.7 0 .7-.7.7-.7l1.3-1.9c.6-.7.6-.7 1.3-1.4l.7-1.2c0-.7 1.2-1.4 1.2-2.6 1.4 0 1.4-.7 1.4-.7.6-1.9 1.9-2.5 1.9-2.5 1.3-2.6 2.6-3.3 3.2-4.5.7 0 1.3-1.4 2.6-1.4.6-1.2 1.3-1.9 1.9-2.6 0-1.2 1.3-1.9 1.3-1.9 1.3-1.9 2-2.6 3.2-3.3 1.4-1.9 2.6-3.2 4-4.5 0-1.3-.7-1.3-.7-3.3 0 0 .7-.6 1.3-1.2 0 0 .6-.7.6-1.4 1.4-.6 2-1.9 3.3-3.2v-.6c.7 0 1.3-.7 1.3-1.3.6 0 .6-.7 1.3-1.3h.7s.6-.7 1.2-.7c0 0 1.4.7 2 1.3 3.2-2.5 5.2 3.2 7.8 4.6 1.3 1.9 3.2 3.2 5.1 5.8 0 0 0 1.3-.6 2 .6.6 1.2-.7 1.9 0 0 .6.7.6 1.3 1.2.6.7.6 0 1.3 0 .7.7.7 1.4 1.3.7l.6 1.9c2 0 2.6.7 4 1.4.6.6 1.2.6 1.2.6h.7l.7.6c1.9 0 2.6 1.4 3.8 1.4zM115.1 56c2.3 2.3 4.7 4 7.1 5.9 1.3.6 2 1.3 3.2 2.5v-.6c-1.9-1.3-2.6-2.6-3.8-3.2-1.4-1.9-3.3-3.3-4.6-5.2 0 0 1.3 0 1.3-.7 1.3 1.4 1.9 2.6 3.3 3.3.6 1.3 1.9 1.9 2.6 3.9 1.2-.7 1.2.6 1.9.6l3.2 3.2c1.9 1.3 3.2 3.3 5.2 4.5.6.7 1.9 2 2.6 2.6 0 0 .6 0 1.2.7 2 2.6 5.2 4.5 7.8 6.5.7 1.3 1.4 2 2.6 2.6.7.6.7.6 1.4 1.3 1.2 1.3 1.9 2.6 3.8 3.3.7 1.2 2 1.9 2.6 3.2.7 1.3 2 2.6 2.6 3.2.7.7.7 1.3.7 1.3s1.9 1.9 2.5 2.6c.7 1.3 2 1.9 2 3.8-.7 2-3.2 2-4.5 3.3-3.3.7-7.8 0-10.4-.7l-1.9-1.2c-.7-1.4-1.4-2.6-2-3.3 0 0-.6-1.9-1.3-2.6 0 0-.7-1.2-1.3-1.9-.6-1.3-1.3-3.2-2.6-4.5-.6-1.3-2-2.6-2.6-3.9-1.3-.7-2.6-1.9-3.2-3.9-.7 0-.7-.6-.7-.6-1.3-.7-1.3-1.4-1.3-2-1.3 0-1.3-.6-1.9-1.3-1.3-1.3-3.2-2.6-4.5-4.5-.7 0-.7-.7-1.3-1.4-.6-.6-1.3-1.2-2-1.2-.6-1.4-1.2-2.6-2.6-3.3H119c-1.4-1.3-2.6-2.6-3.3-3.9-2.5-1.2-4.3-3-6.2-4.3q.2-.1.3-.2l.7-.6q.4-.3.7-.5c.1.5.6 1.1 1.2 1.8 2.6 1.3 4 3.8 6.6 5.1.6.7 1.2 2 2.6 2 .6 1.3 2.6 2.5 3.8 3.9v.6l.7.6c.6.7.6.7 1.3 1.4.6.6 1.9 1.2 2.6 1.9v.7s1.2.6 1.2 1.2c0 0 0 .7.7.7 0 .7.6 1.3 1.3 1.3-2-3.9-4.5-6.5-7.1-9.8-1.3-.6-2.6-1.9-3.9-3.2-2.6-1.9-5.2-4.5-7.8-6.4-.6-1.3-2-1.9-2-1.9q-.1-.4-.2-.7.3-.2.7-.5c1.1.8 2.2 1.9 2.8 3.1 0 0 1.9.6 1.9 1.3.7.6 1.4.6 2 1.3l2 1.9 1.2 1.3h.7c.7.6 1.9 1.9 2.6 3.2 2.6 2 4.5 4.6 6.4 7.2 2 1.9 3.2 5.2 5.2 7.1l-.6-1.9c-1.4-1.4-2-2.6-2.6-4-.7-.6-1.3-1.2-1.3-2.6-1.3-1.2-2-1.9-2.6-3.8 0-1.4 1.3 0 2.6 0-1.3-2-3.9-3.3-5.8-4.6-2.6-2.6-5.8-4.5-9.1-7.1-1.3-.6-1.9-1.2-3.3-2.6l-.8-.8.8-.4q0-.1.1-.1zM104 52.8c0-.6.5-1.1 1-1.6-.5-.7-1.1-1.7-1.6-1.7-.7-1.9-2-2.6-2.6-3.8 0-.7-.7-.7-.7-.7s-.6-.7-.6-1.3c-1.3-.6-.7-2-1.9-2 0-.6-1.3-1.2-.7-2.6 1.3-1.2 3.2.7 5.2.7-.7-1.3-2-2.6-2.6-3.9h-.7s-.6-.6-.6-1.3c-2.6-.6-4.5-1.3-6.5-2.5-.6-.7-1.2-.7-1.9-1.3 0 0-.7-1.3-1.9-1.3-.7-1.9-2.6-3.9-4-5.2V23c-.6-.6-1.2-1.3-1.2-1.3-2-1.9-2.6-4.5-4.6-5.2 0 0 1.3 1.3 0 1.9.6 1.4 2.5 2.6 2.6 4.5q-.2-.3-.6-.5c-.7-.7-1.4-.7-1.4-.7-.6-1.9-1.2-.7-1.2-1.9-1.4 0-.7 1.2 0 1.2l1.2 2c.7.6 1.4 1.3 2 2l1.3 1.9 1.9 1.9s-1.2 0-1.2 1.3c1.2 0 2.6 0 2.6 1.3-.7 1.3-1.4 0-2-.6l-.6-.7c-.7-.6-1.4-.6-1.4-.6s-.6-.7-.6-1.3q.4-.2.6-.2c-.1-1.8-1.2-1.9-1.2-3-1.4-.7-2-2-2.6-3.3-.7.7 0 1.3-.7 1.3 0 .6-1.3 0-1.3.6.6 2 2.6 2.6 2.6 4.6v-.6c0 1.2.6 1.2.6 2.5 0 0 .7.7 1.4.7v.6l1.2 1.9h.7v.7l.7.6c.6.7.6.7 1.2.7v.6s2 .6 2.6 2c0 0 .7 1.2 1.4 1.2-.7-1.9-2-3.2-3.3-4.5l-1.9-1.9c-.7 0-2-.6-2-1.9 1.3-.7 2 1.3 2.6 1.9.6 0 1.3.6 1.3.6.7.7 1.3.7 1.3.7.6.6.6 1.3.6 1.3.7 1.2 1.4 1.2 1.4 1.2l1.2 1.4s.7 1.9.7 3.2c.7 0 1.3.6 1.3 2 .6.6 1.3 1.2 2 1.9 0 0-.7-.7-.7-1.3 0 0-.7-2-1.3-2.6-.6-1.3-1.3-3.2-2-3.9v-.7c0-.6-.6-1.2-.6-1.2 0-1.3-1.3-1.3-.6-2.6 0-.6.6.6.6 1.3.6 0 .6.6.6.6 0 .7.7.7.7.7.7 1.2 1.3 2.6 1.9 3.8 0 0 .7 2 1.4 3.3.6.7 1.2 1.3 1.2 1.9 1.3 1.4 2.6 3.3 3.9 4.6v.6c1.3.7 1.3 2 3.2 2l.7 2s1.3-.7 1.9-.7zm39.5-29.2c0-.6-1.2 0-1.2-.6-.7 0 0-.6-.7-1.3-.7 1.3-1.3 2.6-2.6 3.3 0 1.1-1.2 1.2-1.3 3q.2 0 .6.2c0 .6-.6.6-.6.6s-.6.7-1.3 1.3l-.7.7c-.6.6-1.2 1.9-1.9.6 0-1.3 1.3-1.3 2.6-1.3 0-1.3-1.3-.6-1.3-.6.6-1.3 1.3-1.9 2-2.6L139 25c0-.7.7-1.4 1.3-2l1.3-2c.7 0 1.3-1.2 0-1.2.7 1.2-.7 0-1.3.6 0 0-.6 1.3-.6 2-2 .6-1.4 1.9-3.3 2.6.7-1.4.7-2 1.9-2 0-2 2-3.2 2.6-4.6-.6-.6 0-1.9 0-1.9-1.9.7-2.6 3.3-4.5 3.9 0 0-.7 2-1.3 2v1.9c-1.3 1.3-3.2 3.3-3.9 5.2 0 0-1.2.6-1.9 1.3l-1.3 1.3c-1.9 1.2-4.5 1.9-6.4 2.5-.7.7-.7 1.3-1.4 1.3h-.6c-.6 1.3-2 2.6-2.6 3.9 2 0 4.6-1.9 5.8-.7 0 1.4-1.2 2-1.2 2.6-1.4 0-.7 1.4-2 2 0 .6 0 .6-.6 1.3 0 0-.7 0-.7.7-.7 1.2-1.9 1.9-2.6 3.8-1.3.7-1.9 3.3-3.9 2.6.6-1.2 2.6-2.6 3.9-3.8.7-4 4.5-5.2 5.2-8.5-1.9 0-2.6 1.3-4.5 1.9 0 0-1.4.7-.7 1.4 0 0 .7-1.4 1.9 0l-.6.6c-.6 0 0 .6 0 .6h-.6c-.7 1.4-2 2-2.6 3.3-1.4 1.3-2.6 2.6-4 3.9 0 0-.6.6-.6 1.3-.6 0-.6.7-.6 1.3 0 0-2 1.3-2.6 2-.7.6-1.4.6-1.4.6-1.9 2-2.5 2.6-3.8 3.2-3.2 2.6-5.8 4.5-9.1 7.1-1.9 1.3-4.5 2.6-5.8 4.6 1.3 0 2.6-1.4 3.2 0-1.2 1.9-1.9 2.6-3.2 3.8 0 1.4-.6 2-1.3 2.6-.7 1.4-1.3 2.6-1.9 4l-1.4 1.2c2-1.2 4-4.5 5.9-6.4 1.3-2.6 3.9-5.2 5.9-7.2.6-1.3 1.9-2.6 2.5-3.2h.7c.6-.7 1.3-1.3 1.9-1.3 0 0 .6-1.3 1.3-1.9.6-.7 1.3-.7 1.3-.7l1.9-1.9c1.9-1.3 2.6-2.6 3.9-3.3 0 0 .6-1.2 1.3-.6-.7 1.3-1.9 2.6-3.3 3.9-2.5 1.9-5.1 4.5-7.7 6.4-1.3 1.3-2.6 2.6-3.8 3.2-2.6 3.3-5.2 5.9-7.2 9.8.6 0 1.3-.6 2-1.3V78c.6-.6.6-.6 1.2-.6v-1.3s2-1.3 2.6-1.9l1.4-1.4.6-.6s0-.6.6-.6c1.3-1.4 2.6-2.6 3.3-3.9 1.2 0 1.9-1.3 1.9-1.3 3.2-2 4.5-4.5 7.1-5.8 1.3-1.9 2.6-3.3 4.6-4.5l.6.6.6-.6c.7-.7 1.4-1.4 2-1.4h.6c.7-.6.7-1.2.7-1.2h1.3l.6-2c2 0 2-1.3 3.3-2v-.6c1.3-1.3 2.6-3.2 3.9-4.6 0-.6.6-1.2 1.3-1.9.6-1.3 1.3-2.6 1.3-2.6.6-1.9 1.3-3.3 1.9-3.9 0 0 .7-.6.7-1.3l.6-.6c0-.7.6-1.9.6-1.3.7 1.3-.6 1.3-.6 2.6 0 0-.6.6-.6 1.2v.7c-.7.7-1.3 2.6-2 3.9-.6.6-.6 2-1.3 2.6v.2l1.3-.8c0-1.4.7-2 .7-2 .6-1.3 1.3-2.6 1.3-2.6.6-1.3 1.2-1.3 1.2-1.3s.7-.7.7-1.3c0 0 .6-1.3 1.3-1.3l1.3-1.3s.6-.6 1.2-.6c.7-.6 1.4-2.6 2.6-1.9 0 .4-.1 1.9-.3 2.2.3-.5.3-.9.3-.9s.7-.7.7-1.3h1.3c0-2 1.3-2 1.3-3.2 0 0-.7 1.2-.7.6.7-2 2.6-2.6 2.6-4.6zM138 33zm-.3-5c-.2.1-.3.3-.4.6l.4-.4V28zm-1.3 1.5c.5-.3.7-.6.9-.9zM126.7 44l-.7.4s.5 0 .7-.4zm9.7-11.2l-1.9 1.9c-1.4 1.3-2.6 2.6-3.3 4.5.7 0 .7-1.2 1.9-1.2 0-1.4 1.4-2 1.4-2l.6-.6c.6 0 .6 0 .6-.7 0 0 .7 0 1.3-.7v-.6h.7c.1-.1.1-1.4.2-1.5-.4.6-1.1.9-1.5.9zm39.5-9.7c-1.3 0-2-.7-3.3-.7-.6.7-1.3 1.3-1.9 2.6 0 0-.6 1.3-1.9 1.3 0 1.3-1.3 1.9-2.6 1.9 0 0 .6-1.3-.6-.6 0 0 .6.6.6 1.2l-1.3 2c-.7.6-1.9 1.3-1.9 1.3l-2.6 1.3c-1.4 1.3-2.6 2-4 3.2 0 1.4.7 2.6 1.4 4 1.9 0 2.6-1.4 3.8-1.4 0-.6 0-1.2.7-1.2h.7c1.2-1.4 3.2-2.6 5.1-4 1.3-1.9 3.2-3.8 5.2-6.4 0-.7-.7-.7-.7-.7.7-1.3 1.3-1.3 2-.6 0-1.3 1.3-2 1.3-3.2zm-14.3 4.5s0-.7.7-.7v-5.1c-.7 1.9-1.3 3.8-.7 5.8zm-1.2-2.6c0 1.3-1.4 2.6-.7 3.2 0 0 1.3-1.9.7-3.2zm-.7-9.8v.1c.3 0 .2 0 0-.1zm-.7-.5c0 .3.4.5.7.5 0-.1-.1-.5-.7-.5zm0 9.6c0 2-1.2 3.9-.6 5.9.6-2 .6-4.6.6-5.9zm-4.5-16.2s-.7-1.2-1.9-1.2c-.7 1.2 1.2 2.6 1.9 1.2zm-3.3-2.6v.7c1.4 0 .7-.7.7-.7zm-.6-1.9v.7c.6 0 .6-.7 0-.7zM121.5 34c2.6-1.2 5.2-2.6 7.8-3.8 1.2-2 2.5-3.3 4.5-5.2v-.7c.6-.6.6-1.9.6-1.9 1.3-.6 1.3-1.9 1.3-1.9 1.3-2.6 3.2-3.2 3.9-5.2-1.4 0-1.4.6-2 1.3 0 0-.6 1.3-1.3 1.9 0 0-.6.7-1.3 1.4-.6.6-1.2 1.9-2.5 2.5-1.3 1.9-3.2 3.2-4.6 5.2l-1.9 1.2h-1.3c-.6.7-1.3 2-2 2.6 0 0-1.9 1.4-1.2 2.6zm5.8-7.1c2-1.3 3.2-3.2 4.5-4.5.7-1.3 1.3-1.9 2-2.5.6-.7 1.9-2 2.5-2.6V17c-2.7 2.4-5.6 5.3-8.4 8.6 0 0-1.2.7-.6 1.3zm9-9.9q.4-.4.8-.7c-.2.2-.5.3-.8.3zm1.3-1.1q-.2.2-.5.4c.3-.2.5-.4.5-.4zm-44 48.6c1.3-1.3 2-2 3.2-2.6 3.3-1.9 5.8-4.5 9.1-7.1 0 0-.7-.6 0-1.3.6 0 .6-.6.6-.6 1.3 0 .6-.7 1.3-1.3 1.3-.6 1.9-2 3.3-2.6 1.2-1.3 1.9-2.6 2.6-3.9-1.4 0-1.4 1.3-2 1.9-2 2-4.6 3.3-6.5 5.9-.6 0-.6 1.3-1.9 1.3-1.3 2.5-3.9 3.8-5.1 6.4-2 .7-2.6 1.9-4.6 2.6zM81.9 81.4v-1.3c.7-.6.7-.6 1.3-1.3v-.7l.6-.6.7-.6c0-.7.7-1.4.7-1.4s.6-.6.6-1.2c.6-.7 1.3-1.4 1.3-1.4-1.9.7-5.2 1.4-6.5 4 .6 0 1.3 0 2 .6-.7 1.3-1.4 2.6-2 3.9-.6.7-1.3 1.9-2.6 2.6-.6 1.9-2 2.6-2.6 4.5-1.3 1.3-1.9 3.9-3.2 5.1 0 0-.7 2-1.3 2-.6 2-1.3 2.6-1.9 4.6-.7 0-1.3 1.9-2 1.2 1.3-3.2 3.3-5.8 4.5-7.8 1.3-3.8 3.9-5.7 5.2-8.9 1.3-1.4 1.9-2 2.6-3.3.7-1.3 1.3-2.6 1.9-3.9-1.9-.6-3.2 1.3-5.2 2-1.9 1.9-3.8 3.8-5.7 5.2l.6 1.9c-.6.6-.6 1.9-1.3 2.6 0 1.9-1.3 1.9-1.3 3.8 0 0-1.3.6-1.3 2-1.3 0-1.9 1.2-1.9 1.2l-.6.7v.7s-1.4.6-2 1.2c0 0 0 .7-.6 1.4 0 0-2 1.2-3.3 0 0-1.4.7-2.6 1.9-2.6.7 0 .7 1.2.7 1.2 1.3-.6 2.6-1.2 3.3-2.6.6-.6 1.2-1.9 2.5-2.6.7-2.5 2-4.4 2.6-7.7 0 0-1.3.7-1.3 1.3l-.6.7c0 .6-1.3 1.3-1.3 1.9-.7 0 0 .6-.7.6 0 .7-.6 1.3-.6 2-.6.6-1.3 1.2-2 1.9-1.2.7-1.2 2.6-2.6 2.6v-1.3c.7-.6 2.6-2 2-3.2-1.3 3.2-4.6 5.2-6.5 8.4 0 .6 1.3.6.7 1.3 1.9.7 2.6 1.3 3.8 1.3.7 0 0 0 0 0l1.4-.6c.6-.7 1.2-1.4 1.9-2 1.9-2.6 4.5-5.2 5.8-7.8.7-.6.7-1.3.7-1.3s.6-.6 1.2-1.3c0 0 0-.6.7-1.2 1.3-2.6 3.2-5.2 3.8-7.8 1.4.7.7 1.9.7 1.9-1.3 2-1.9 3.3-2.6 3.9v.7c-.6 0-.6.6-.6.6s-.7 1.3-1.3 1.3v.6l-.7.7c-.6 1.3-1.9 3.2-2.5 4.5l-.7.6-.6.7c0 .7 0 .7-.7.7 0 0-.6.6-.6 1.2v.7c-.7.7-1.9 1.3-2.6 2.6l-.7.7c2.6 0 3.9.6 5.9 0v-.7c1.3-5.2 4.5-8.5 7.7-11 1.3-3.9 3.3-7.1 5.2-9.7zM74.1 95c-1.9 1.2-2.6 3.8-3.8 5.8v.6c1.2-.6 1.2-1.2 1.2-1.2.7-.7 1.3-2 1.3-2 .7-2 1.3-2.6 1.3-3.2zm7.1-9.7c-1.2 0-1.2 1.3-1.2 1.3s.6-.7 1.2-1.3zm33.7-33.7c0-.6.7 0 1.4-.6.6 0 1.2-1.4 1.9-2 1.3-1.3 1.3-2.6 2.6-3.9.7-1.9 1.9-3.3 3.3-5.2.6-1.3 1.2-3.3 2.6-4.5-.7-.7-.7 0-1.4.6h-1.2c-1.4.6-2 1.3-3.3 1.3 0-1.9 2.6-1.3 3.3-3.3.6 0 .6.7.6.7 1.3-.7 2-1.3 3.2-1.3 1.4-.6 2-2 3.3-2.6 0 1.3-.7 1.3-1.3 2 0 0-1.3 1.2-2 1.9-1.2 2.6-1.9 5.2-4.5 7.1-1.3 4-3.9 6.6-6.5 9.8-.6 0-1.3.6-2 0zM150 12.1s0-2-.7-2.6c0 1.2 0 2.6-.7 3.8 0 .7 0 2-.6 2 0-1.3.6-3.2 0-4.6 0 .7 0 1.4-.6 2-.7-.6.6-2 0-3.2 0 0 0-1.4-.7-1.4 0 1.4 0 3.3-.7 4.6-1.2-.6-.6-2-.6-2l-.6.7s-.7.7 0 1.3v2c-.7.6-1.4.6-1.4.6s.7.6.7 1.3c0 2.6 1.9 3.3 3.3 5.2h.6s.6-3.9.6-5.2c0-1.9.7-3.3 1.4-4.5zm5.2 13.6c.6-4.6 1.2-8.4 1.2-13-.6-.6-1.2-.6-1.9-1.3-.7 1.3 0 3.3-.7 4.5 0 .7 0 1.4-.6 1.4 0-2 .6-4.6.6-7.2-1.9.6 0 3.9-1.9 3.9-.7-.7.7-2.6 0-3.9-.7 2 0 4.6-1.3 5.8 0-1.9.6-3.8.6-6.4v-.7c-1.2 3.3-1.2 6.5-1.9 9.7 0 0 1.3 0 .7.7.6 1.9-.7 3.9 0 5.8.6-1.9 0-4.5 1.2-5.8v-1.9c0-1.4 0-2.6 1.4-2.6 0 1.9-.7 3.8-.7 5.8v1.9c0 2-1.3 4.5.7 5.8 0-1.3 0-3.2.6-3.8.6 1.9-1.3 4.5 0 6.4.6-1.3.6-2.6.6-3.9.7-1.2 0-2.5 0-2.5 1.4-.7.7 1.9 1.4 1.3zm1.2 1.9s0 1.9.7 2.6c0-1.3.7-2 .7-3.3.6-1.9.6-4.5.6-6.4-.6 1.9-.6 4.5-1.3 5.8-1.3 0-.7-2.6-.7-2.6.7-1.9 1.4-3.8 1.4-6.4l.6-.7c-.6-.7-.6-1.9-.6-1.9-.7-.7-.7.6-.7.6 0 5.8-1.3 10.4-1.3 14.2 0 0 0-1.9.6-1.9zm7.2 2.6h.6c-.6-.7 0-2 0-2-.6.7-1.3 0-1.3 0 0 .7-.6 2 .7 2zm-83-7.2l.1.1h-.1V23zm2 2c-1.5-.5-1.5-1.3-1.9-1.9 1.2 0 1.2.6 1.9 1.9zm-1.4 3.1v.1l1.4 1.3c-.6-.5-.7-1.4-1.4-1.4zM102 51.6c-2.6-3.2-5.2-5.8-6.4-9.8-2-1.9-3.3-4.5-4.6-7.1l-2-1.9c-.6-.7-1.2-.7-1.2-2 1.2.6 1.9 2 3.2 2.6 1.3 0 2.6.6 2.6.6.6.7 1.3 0 1.3 0 .7 2 3.3 1.4 3.3 3.3-1.4 0-2-.7-3.3-1.3 0 0-.7 0-1.9-.6 0 0 0-.7-.7 0 1.3 1.2 1.9 3.2 2.6 4.5 1.3 1.9 2.6 3.3 3.3 5.2 1.2 1.3 1.9 2.6 2.5 3.9l2.6 2c0 .6.6 0 .6.6-.6.6-1.9 0-1.9 0zM68.3 4.3s0-.7.7-.7c-.7 0-1.3.7-.7.7zM67 6.2c.7 0 .7 0 1.3-.7 0 0-.6-.6-1.3-.6zm-2.5 1.9c.6 1.4 2.5 0 1.9-1.2-1.3 0-1.3.6-1.9 1.2zm-1.4 28.5c-1.2-1.2-2.6-1.9-3.8-3.2 0 0-2-.6-2-1.3-1.3 0-2-.7-3.2-1.3l-1.4-1.9c0-.7 1.4-.7 1.4-.7-1.4-1.3-1.4 0-1.4 0-1.2 0-2.6-.6-2.6-1.9-1.2 0-1.2-.6-1.2-.6-1.4-2-2-2.6-2-2.6-2-.6-2.6 0-3.9 0 0 1.3 1.3 1.9 1.3 3.2.6-.6 1.3-.6 2 0 0 0-.7.6-.7 1.3 1.9 2.6 3.9 4.5 5.9 6.4 1.9 1.4 3.2 2.6 4.5 4h1.3s.6.6.6 1.2c.7 0 1.4 1.4 3.3 1.4.7-1.4 1.3-2.6 1.9-4zm-3.8-21.3s.6 0 .6-.6c-.6 0-.6.6-.6.6zm0 12.9c.6-.6 0-1.9-.7-3.2-.7 1.3 0 3.2.7 3.2zm-2.6-1.3c.6 0 .6.7.6.7.6-1.9 0-3.9-.6-5.8zm-2 3.2H56v-1.9s-.7.6-.7 0c0 0 0 1.3-.6 1.9zm5.8 0c.7-1.9 0-3.9-.6-5.8 0 1.3.6 3.9.6 5.8zm2.6-.6q0-.3.1-.6-.1.3-.1.6zm-1.2-13.7s0-1.9-1.4-1.9c.7.7.7 1.9 0 2.6.7 0 .7.7.7.7 0 2.6.7 4.5.7 6.4.6 0 1.2 2.6 0 2.6-.7-1.2-.7-3.8-1.4-5.8 0 2 0 4.6.7 6.5.7 1.3.7 1.9 1.3 3.2.6-.6-.6-1.9 0-2.5.4 0 .7.1.7.3.1-3.5-1.3-7.6-1.3-12.1zm1.3 12.1v1c0-.3.1-.7 0-1zm6.4-9.5c-.6-3.2-.6-6.4-1.3-9.7v.7c-.6 2.6.7 4.5 0 6.4C67 14.6 67.7 12 67 10c-.6 1.3.7 3.2 0 3.9-1.3 0 0-3.3-1.9-3.9.6 2.6.6 5.2.6 7.2 0 0-.6-.7-.6-1.4-.6-1.2 0-3.2-.6-4.5 0 0-1.4.7-2 1.3 0 4.6.6 8.4 1.3 13 .7.6 0-2 0-2 1.3.7.7 2 1.3 3.3 0 1.3.6 2.6.6 3.9 1.3-2-.6-4.6 0-6.5 1.3.7.7 2.6.7 3.9 1.9-1.3.6-3.9.6-5.8 0-.7.7-1.4.7-1.4-.7-2.6-1.3-4.5-1.3-6.4 1.3 0 1.3 1.2 1.3 1.9v2.6C69 20.4 69 23 69 25c.6-2-.7-4 0-5.9 0-.7.6-.7.6-.7zm-5.8 12.4s0-1.3-.7-1.3v1.3zm11.6-15s-.6-.6-.6-1.2v-2c0-.6-.6-.6-.6-.6-.7-.7 0-2-.7-2 0 0 .7 2-.6 2.6 0-1.3-.7-3.2-.7-4.6l-.6 1.4c-.7 1.2.6 2.6 0 3.2-.7-.6-.7-1.3-.7-2-.6 1.4.7 3.3 0 4.6 0 0-.6-1.3-.6-2-.6-1.2 0-2.6-.6-3.8-.7.6 0 1.9 0 1.9 0 1.9.6 3.3.6 5.2 0 1.3.6 3.9.6 3.9l.7 1.3c1.3-1.9 3.2-2.6 3.2-5.2 0-.7.6-.7.6-.7zm20.8 15.6c-.6-.6-1.3-1.9-1.3-1.9l-1.9-.7c-.7 0-1.4-.6-2-1.2-1.3-2-3.2-3.3-4.6-5.2-1.2-.7-1.9-2-2.6-2.6l-1.2-1.4c-.7-.6-.7-1.2-.7-1.2-1.3-1.4-1.3-2-2.6-2 .7 2 2.6 2.6 3.3 5.2 0 0 1.2 1.3 1.2 2 0 0 .7 1.2 2 1.9v.7c1.3 1.9 2.6 3.2 3.9 5.1l7.8 3.9c.7-1.3-.7-2-1.3-2.6zM82.6 16.5v.7c1.2.6 1.9 1.9 2.6 2.6.6.6 1.2 1.2 1.9 2.6 1.9 1.2 3.3 3.2 4.5 4.5 1.4-.7-.6-1.3-.6-1.3-2.6-3.9-6.5-7.2-9.1-10.4 0 0 0 1.3.7 1.3zm80.4 84.2c-2-3.2-4.6-5.1-6.6-8.4-.6 1.3 1.4 2.6 1.4 2.6l.6.7v1.2c-1.3 0-1.3-1.9-2.6-2.5l-1.3-2c-.7-.6-1.3-1.3-1.3-1.9l-.6-.6c0-.7-.7-1.4-1.4-2 0 0 0-.6-.6-.6 0-.7-.6-1.4-1.3-1.4.7 3.3 1.9 5.2 2.6 7.8 1.3.7 1.9 2 2.6 2.6l2.6 2.6c1.3 0 .7-1.3.7-1.3 1.9 0 2.6 1.3 2.6 2.6-1.4 1.2-2.6.6-3.3 0 0-.7-.7-1.3-.7-1.3-.6-.7-1.2-.7-1.2-.7-.7-.6-.7-.6-.7-1.3 0 0-1.3-1.9-2.6-1.9 0-1.3-.7-1.9-1.3-1.9 0-2-.6-2-.6-3.9-1.4-.7-1.4-1.9-1.4-2.6-.6-.7 0-1.3 0-1.3-1.9-2-3.8-3.9-5.8-5.8-1.3-.7-3.2-2.6-5.1-2 .6 1.3 1.3 2.6 1.9 3.9.6 1.3 1.9 1.9 2.6 3.3 1.2 3.2 3.8 5.2 5.2 9 1.9 2 3.2 4.5 4.5 7.7l-1.3-1.2c-1.3-2-2-2.6-2.6-4.5l-1.3-2c-1.3-1.3-1.9-3.8-3.3-5.2-.6-1.9-1.9-2.6-2.5-4.5-1.3-.7-1.9-1.9-2.6-2.6-.6-1.3-1.3-2.6-1.3-3.9 0 0 .7-.6 1.3-.6-1.3-2.6-3.8-3.3-5.8-4.6l.6 2 .7.6s.7 1.3.7 2l.6.6.6.6v.7c.7.7 1.3.7 1.3.7l.7 1.9c1.3 2.6 3.2 5.9 4.5 9.7 3.2 2.6 6.4 5.8 7.1 11 .7 0 .7 0 .7.7 1.9.6 3.8 0 5.8 0 .6 0-.6-.7-.6-.7-.7-1.3-2-1.9-2.6-2.6v-.6c0-.7-.7-.7-.7-.7s0-.6-.7-1.3l-1.2-1.2c-.7-1.3-2-3.3-2.6-4.6l-.7-.6v-.6s-.7-.7-1.3-.7l-.6-1.3v-.6c-.7-.7-1.4-2-2-3.3 0 0-1.3-1.9 0-2.6.6 2.6 2.6 5.2 3.9 7.8l.7.7c.6 1.2 1.2 1.2 1.2 1.2l.7 2c1.3 2.6 3.9 5.1 5.9 7.7.6.6 1.2 1.3 1.9 2h1.3v.6c1.3 0 2-.6 3.9-1.3-.7-.7.7-.7.7-1.3zm-14.4 0c-1.2-1.9-1.9-4.5-3.8-5.8 0 0 .6 1.3.6 2.6.6.6 1.3 1.9 1.3 2.6.7 0 1.3.6 1.3 1.2.6 0 .6 0 .6-.6zm-10.3-15.5c0 .6.7.6.7.6zm17.5-55.7v1.3h-.6.6z" opacity=".2" fill="0"/><path id="Path 268" fill-rule="evenodd" class="s1" d="M66.2 82.7l.6-1.3.6-.6s0 .6.7.6v.7s0 1.2-.7 1.2c0 0-.6 1.4-1.2 2l-2 .6c-1.3.7-2.6.7-3.9.7-1.9 0-3.9-.7-5.2-1.3-1.9-.6-3.3-1.3-3.9-2.6-1.3-.6-2-1.9-3.2-3.9-.7-1.2-1.3-2.5-1.3-2.5-.7-3.3-1.3-4.5-1.3-5.9v-4.5c0-1.9 0-3.9.6-5.2 0-1.9.7-3.3.7-4.5.6-1.4 1.3-2.6 1.9-4h-1.3c-1.3 0-2.6.7-3.8.7-1.3.7-2.6.7-3.9 1.3L37 56.8s-1.9 2-3.3 3.2c-1.2 1.4-3.2 2-4.5 3.3-1.9 1.3-3.3 2.6-5.2 3.3-1.9 1.2-3.9 1.9-5.9 2.6-1.2.6-3.2 1.2-5.1 1.2-1.9 0-3.9-.6-5.2-1.2-1.9-.7-3.2-2-3.8-3.3-1.4-1.3-2-2.6-2.6-4.5-.7-2-1.4-4-1.4-5.9 0-1.9.7-3.9 1.4-5.8 1.2-2 2.6-3.9 3.8-5.8 1.4-1.3 3.3-3.2 5.2-4.6 1.9-1.2 3.9-2.6 5.8-3.2 2.6-1.3 4.5-2 7.1-2.6 2 0 4-.6 5.9-.6 1.9 0 3.3.6 4.5 1.2 1.4.7 2.6 2 3.3 2.6l1.3 2.6c.6 2 .6 2.6.6 2.6v1.3h-1.2c-.7-.6-1.4-1.9-2-2.5-.6-.7-2-.7-3.2-1.4-1.4-.6-2.6-.6-5.2-.6-2 0-4 0-6.6.6-1.9.7-3.8 1.4-5.8 2-1.9 1.3-3.8 1.9-5.1 3.2-1.3 1.3-3.2 2.6-3.2 2.6-2 2.6-3.3 3.9-3.3 5.1-.7 1.4-1.3 2.6-1.3 3.3 0 1.9.6 3.3 1.3 5.2L4.6 62s.6 1.3 1.3 2c0 0 1.9.6 2.6.6 0 0 1.9.6 3.2.6 1.9 0 3.9-.6 5.8-1.2 2-.7 3.9-1.4 5.8-2.6 2-.7 4-2 5.2-3.3 2-.7 3.3-1.9 4-2.6-.7 0-2 .7-3.3.7h-2.6c-1.9.6-3.3.6-4.5 0-1.4-.7-2.6-1.4-2.6-1.4-2-1.2-2.6-1.9-2.6-3.2-.7-.6-.7-1.3-.7-2.6v-1.3l.7.7c.6.6.6 1.3 1.9 1.3 1.3.6 2.6.6 2.6.6 2.6.7 4.5.7 5.9.7h5.2c1.2 0 2.6-.7 3.8-.7 1.4 0 2 0 3.3-.6 3.2-2.6 5.8-5.8 7.7-7.8 1.3-1.2 1.9-2.6 3.3-3.2.6-1.3 1.9-2 2.6-3.2.6-.7 1.2-1.4 1.9-2.6 0-.7.7-1.4.7-1.4 0-.6 0-.6.6 0 0 0 1.3.7 2 1.4l1.9 1.9c.7 1.3.7 2.6.7 3.3V40c-.7.7-.7 1.3-1.4 1.9-.6 1.3-.6 2-1.2 3.3-.7.6-.7 1.2-1.4 1.9l5.2-.7h2v-.6h1.3v.6c0 .7-.7 1.3-.7 1.3-1.2 0-1.9.7-3.2 1.3h-2l-1.9.7c-.7 0-1.3.6-1.9.6l-.7 1.3c-1.3 2-1.9 3.9-2.6 5.8-.7 1.4-.7 2-.7 3.3 0 0-.6 1.9-1.2 2.6 0 1.3 0 1.9-.7 3.3v1.9c0 3.9.7 6.5 1.3 8.4.6 1.9 1.3 3.9 2.6 5.2.6 1.2 2 1.9 3.2 2.6.7.6 2 1.2 2 1.2h2c.6 0 1.2 0 1.9-.6l1.3-.6 2-.7zM49.9 48.4l1.3-1.3c0-.7.6-1.3.6-2 .7-.6.7-1.9 1.4-2.5.6-.7.6-1.3.6-1.3 1.3-2.6 2.6-3.9 3.9-5.8L44.1 49l3.9-.6z"/><path id="Path 269" fill-rule="evenodd" class="s1" d="M72.6 71.1c.7 0 1.3-.7 2.6-1.3.7-1.3 1.9-2 3.2-3.2 1.3-1.4 2.6-3.3 3.9-4.6 1.3-2 2.6-3.2 3.9-5.2l.7-.6h.6v.6s0 .6-.6 1.3c0 0 0 .7-.7 1.3-.7 1.3-1.9 2-2.6 3.2-.7 1.4-1.9 2.6-3.3 4-.6 1.2-1.9 1.9-3.2 3.2-1.2 1.3-1.9 2-3.2 2.6 0 0-1.9 1.3-2.5 1.3 0 0-.7-.7-1.4-.7l-1.2-.6c-.7-.6-.7-1.3-1.4-2v-3.2c-1.2 1.3-1.9 2.6-2.6 3.2-.6.7-1.9 1.4-2.6 2l-1.9 1.3c-.7 0-.7-.7-.7-.7-1.2 0-1.9-.6-2.6-.6-.6-.6-.6-1.3-1.2-2v-2.6c0-1.2 0-2.6.6-3.8.6-1.4 1.3-2.6 2-4 1.2-1.2 1.9-2.6 3.2-3.8 1.3-.7 2.6-2 3.9-3.3.7-.7 1.9-1.3 3.3-1.9.6-.7 1.9-.7 1.9-.7h2.6s1.3.7 1.3 1.3l1.3 1.3c1.9-3.2 3.2-5.8 4.4-8.4 1.4-1.3 1.4-2.6 2-3.2.6-1.3 1.3-2.6 2-3.2.6-1.4.6-2 1.2-2.6v-2l.7-.6c.7 0 1.3 0 1.9.6 0 0 .7.6 1.4 1.3 0 1.3.6 1.9.6 3.9 0 .6-.6 1.3-1.3 2.6-.7 1.3-1.3 3.2-1.9 4.5-1.4 1.9-2 3.2-3.3 5.2-1.3 1.9-2.6 3.8-3.3 5.8-1.2 2-2.5 3.9-3.2 5.2-1.2 2-1.9 3.2-3.2 4.6-.6 1.2-.6 2.6-1.3 3.2zm-11.6 0c.6 0 1.2-.7 2.6-1.3.6-.6 1.9-2 2.6-3.2 1.2-1.4 2.6-2.6 3.8-4 .7-1.2 2-3.2 2.6-4.5.7-1.3 1.3-1.9 1.3-1.9.7-2 .7-2 0-2 0 0-.6 0-1.9.6-.6.7-1.3 1.4-2.6 2-.6 1.3-2 2.6-2 2.6-1.9 2-2.6 3.2-3.8 4.6-.7 1.2-1.4 2.6-2 3.8-.6.7-.6 2-.6 2z"/><path id="Path 270" class="s1" d="M88.1 50.3l.7-.6c.7 0 1.3.6 1.9.6 0 0 1.4.7 2 1.3.6.6.6 2 .6 2.6 0 1.3 0 2-.6 3.2-.6.7-1.3 2-2 3.3-.6.7-1.2 1.9-1.9 3.3-.7 1.2-1.3 1.9-1.3 1.9-1.3 1.9-1.3 2.6-1.3 2.6l-.7 1.3s2-.6 2.6-1.3c1.4-.7 2-1.9 3.3-3.3 1.3-1.2 2.6-2.6 3.9-4.5 1.3-1.3 2.6-3.3 3.9-4.5 1.3-2 1.9-3.3 2.6-5.2.7-1.3 1.3-2.6 1.3-2.6 0-2.6 0-3.9-.6-4.5-.7-.7-1.4-1.3-2-2-.6-.6-1.3-1.2-1.3-1.2h-2.6V40l.7-.7c1.2 0 1.9 0 3.2.7 1.3.7 2 1.3 3.2 1.9 0 0 2 2 2.6 3.3 1.3 1.2 1.3 2.5 1.3 4.5 0 1.3 0 2.5-1.3 4.5-.6 1.3-1.9 2.6-3.2 4.6-1.3 1.2-3.2 2.6-4.6 4.5-1.9 1.3-3.2 2.6-4.5 3.9-1.9 1.3-3.3 2.6-3.9 3.2-1.3.7-2 1.4-2 1.4l-.6.6-2 1.3c-.6 0-1.2-.7-1.9-.7 0 0-.7-1.2-1.3-1.9 0-.7-.6-1.3-.6-1.9v-4s1.2-1.9 1.2-2.6c.7-1.2 1.4-1.9 2-3.2.6-.6 1.3-2 1.3-3.2.7-.7 1.3-2 1.3-3.3.6-.7.6-1.9.6-2.6z"/><path id="Path 271" fill-rule="evenodd" class="s1" d="M125.1 56.8h.7c0-.6 0-.6.6 0v1.3c-.6 0-.6.7-1.3 1.3-1.3 1.3-1.9 2-2.6 3.2-1.3 1.4-2.6 2.6-3.9 4-1.3 1.2-2.6 1.9-3.9 3.2-1.3 1.3-2.6 2-3.2 2.6-1.3.6-2.6 1.3-3.9 1.3l-1.9-1.3c-.7 0-1.3-.6-1.3-.6-.7-1.4-1.3-2.6-1.3-4 0-1.9.6-3.2 1.3-4.5.6-1.3 1.3-2.6 1.9-3.9.7-1.3 1.9-2.6 3.2-3.9.7-1.3 2-1.9 3.3-2.6.6-1.3 1.9-1.9 1.9-1.9 1.9-.7 2.6-1.3 2.6-1.3l1.3.6s.6 0 1.3.7c0 .6.7.6.7.6 0 2 .6 2.6.6 3.9l-1.3 1.9c0 1.4-.7 2-1.9 3.3 0 0-1.4 1.3-2.6 2.6 0 0-2 1.3-2.6 1.9-.7.7-2 1.4-2.6 1.4-.7.6-1.3.6-1.3.6l-.7 2c-.6.6-.6.6 0 1.2h.7c1.3 0 1.9 0 3.2-1.2 1.9-.7 3.3-2 4.5-3.3 1.4-1.3 3.3-2.6 4.6-3.9 1.3-2 2.6-3.2 3.9-5.2zm-7.8-1.3c-.7 0-.7.7-.7.7l-1.2 1.2-1.4 1.4c-.6.6-1.2 1.2-1.2 1.9-1.3 1.3-2.6 3.3-3.3 5.2 1.3-1.3 2.6-1.9 3.9-3.3 1.3-1.2 2-2.6 2.6-3.2.6-1.3 1.3-2 1.3-2 .7-1.2 0-1.9 0-1.9z"/><path id="Path 272" class="s1" d="M132.9 73.7s-1.3-.7-1.9-1.9c-.7-1.4-1.4-2.6-1.4-4.6l.7-1.3c0-.7.7-1.3.7-1.9.6-1.4.6-2 1.2-2.6 0 0 .7-1.4 1.4-2 .6-2 1.9-3.2 3.2-5.2 0 0-.7 0-1.3 1.3-1.3.7-1.9 1.3-3.3 2.6-1.2 1.3-1.9 2.6-3.2 3.9-1.3 1.3-2.6 3.2-3.9 4.6-.7 1.2-1.3 2.6-1.9 3.2-1.4 1.3-1.4 2-1.4 2 0 1.2 0 1.2-.6 1.9l-.6-.7-1.4-1.9c-.6-1.3-.6-1.9-.6-1.9v-2.6c1.3-2 2-2.6 2.6-4 0 0 1.3-1.9 2-3.2.6-1.3 1.9-2.6 2.6-3.2.6-1.4 1.2-2.6 1.2-2.6.7-2 .7-2.6.7-3.9l.7-.7c.6 0 .6.7.6.7 1.3.6 1.3 1.3 2 1.9 0 1.3.6 2 .6 3.2 0 .7 0 1.4-.6 1.4v1.2l-1.4 1.4 4.6-4.6c.6-.6 1.3-1.3 1.9-1.3.7-.7 1.3-1.3 1.3-1.9l2-.7.6-.6s.6.6 1.3.6c0 0 .6.7.6 1.3 0 0 0 .6.7 1.3v1.9s0 .7-.7 2c0 0-1.3 2-1.9 3.2-1.3 1.4-1.9 2.6-2.6 4-.6 1.2-1.9 1.9-2.6 3.2-.6 1.3-.6 2-1.2 2.6v1.3s1.9-.7 3.2-1.3c.6-1.3 1.9-2 3.2-3.9 1.3-1.3 2.6-2.6 3.9-4.5 1.2-1.4 2.6-3.3 3.8-4.6v-.6h1.4v.6s0 .6-.7.6c0 .7 0 1.4-.7 2-.6.6-1.9 2-2.6 3.2-.6.7-1.9 2-3.2 3.3-.6 1.3-1.9 2.6-3.2 3.9-.6.6-1.9 2-2.6 2.6-1.3.6-1.9 1.3-3.2 1.3z"/><path id="Path 273" class="s1" d="M173.7 46.4c.6.7.6.7 0 .7v.6h-.7s-.6-.6-.6-1.3c0 0-1.3-.6-1.9-1.2-.7-.7-1.3-.7-2.6-1.3h-5.8c-1.4 1.9-2.6 3.2-3.3 5.8-1.3 1.9-2.6 3.9-3.9 5.8-1.3 1.9-2.6 3.9-3.2 5.9-1.4 1.9-2 3.2-2.6 4.5-.7 1.9-1.4 3.3-1.4 3.9l.7 1.3s.7-.7 1.9-1.3c1.4-1.3 2-2 3.3-3.2 1.3-1.4 3.3-3.3 4.5-4.6 1.4-2 2.6-3.2 3.3-5.2 0 0 .7 0 .7-.6h.6c0 .6.6.6.6.6s-.6.6-.6 1.3c0 0-.6.7-1.3 1.3-.7 1.3-1.3 2-2.6 3.2-.7 1.4-1.9 2.6-2.6 4-1.3 1.2-2.6 1.9-3.3 3.2-1.2 1.3-2.6 2-3.2 2.6-1.3.6-2 1.3-2.6 1.3-1.3 0-2-.7-2.6-.7 0 0-.6-.6-1.3-1.2l-.6-2v-2l.6-1.9c.7-1.3.7-1.9 1.3-3.3.6-1.2 1.3-2.6 2-4.5 1.2-1.3 1.9-2.6 2.6-4.5 1.2-1.4 1.9-3.3 3.2-4.6.6-1.9 1.3-3.2 2.6-5.1-1.3.6-2 .6-2.6.6h-2.6c-1.3 0-2.6-.6-3.9-.6l-1.9-.7c-.7-.6-1.3-1.3-1.3-1.3-.7-.6-.7-1.2-.7-1.2-.6-1.4-.6-2-.6-2s.6 0 1.3.6c0 0 1.3.7 2.5 1.4 1.4.6 2.6.6 4.6.6h5.8c2-2.6 3.3-4.6 4-6.5l1.2-2.6c0-1.3 0-1.3.7-1.3 0 0 .7 0 1.3.6 0 0 1.3.7 2 2 0 .6.6 1.3.6 2.6 0 .6-.6 1.3-.6 2 0 0-.7 1.9-1.4 2.6h1.4c1.2 0 2.6 0 3.8.6 1.3 0 2 .6 2 .6 1.3 1.3 1.9 2 2.5 2.6z"/><path id="Path 274" class="s1" d="M170.5 73.7c-.7 0-1.3-.7-2-1.3-.6-.6-.6-1.3-1.2-2v-2.6s0-1.9.6-2.6c-1.3 2-2 3.3-3.2 4.6 0 0-.7.6-1.4 1.3 0 0-.6.7-1.2 1.3l-1.4.6-1.2.7c-.7 0-1.4-.7-1.4-.7-.6 0-1.2-.6-1.2-.6-.7-.6-.7-1.3-1.4-2v-1.9c0-.7 0-1.3.7-2.6.7-.7 1.3-1.9 1.9-2.6.7-1.3 1.4-2.6 2-3.9.6-.6 1.3-2 2-3.2.6-1.4 1.2-2.6 1.2-2.6.7-2 1.4-2.6 1.4-2.6 0-1.3 0-1.3.6-1.3 0 0 .6.6 1.3.6l1.3 1.9c.6.7.6 1.4.6 2 0 0-.6 2-1.2 2.6 0 1.3-.7 2.6-2 3.9-.6 1.3-1.3 2.6-2 3.9-1.2 1.3-1.9 2-2.6 3.2-.6 1.4-.6 2-.6 2-.6 1.3-.6 2-.6 2s1.2-.7 2.6-1.4c.6-1.2 1.2-1.9 2.6-3.2 1.2-1.3 2.6-2.6 3.8-4.6 1.3-1.2 2.6-3.2 3.9-4.5.6-1.9 1.9-3.3 2.6-4.5.6-1.4 1.2-2.6 1.2-2.6 0-1.3 0-1.3.7-1.3 0 .6.7.6 1.3 1.3 0 0 .6.6 1.3 1.2.7.7.7 2 .7 2 0 1.3-.7 2-1.4 3.2-.6 1.4-1.2 2.6-1.9 3.3-.7 1.3-1.3 2.6-1.9 3.9-1.3 1.3-2 2.6-2.6 3.2-.6 1.4-.6 2-.6 2-.7 1.3-.7 2 0 2 0 0 .6-.7 1.2-.7.7-.7 1.3-1.3 2-1.9.6-.7 1.2-1.4 2.6-2.6.6-.7 1.9-2 2.6-3.3.6-.7 1.9-1.9 2.6-3.3.6-1.2 1.9-1.9 2.6-3.2l.6-.6h.6v.6s0 .6-.6 1.3c0 0 0 .7-.6 1.3-.7 1.3-2 2-2.6 3.2-.7 1.4-2 2.6-3.3 3.3-.7 1.3-1.9 2.6-3.3 3.9-.6 1.3-1.9 2-3.2 2.6-.6.6-1.9 1.3-2.5 1.3z"/><path id="Path 275" fill-rule="evenodd" class="s1" d="M205.4 56.8l.7-.6h.6v1.9s-.6.7-1.3 1.3c-.6 1.3-1.3 2-2.5 3.2-.7 1.4-2 2.6-2.6 4-1.3 1.2-2.6 1.9-3.9 3.2-.6 1.3-2 2-2.6 2.6-1.3.6-2 1.3-2.6 1.3-1.3 0-2-.7-2.6-.7 0 0-.6-.6-1.3-1.2l-.7-2v-2s0-1.2.7-2.6c0 0 .7-1.9 1.3-2.6.6-1.2 1.3-2.6 2-3.2.6-1.3 1.2-2.6 1.9-3.2 0 0-1.3 0-2.6.6-1.3 0-2.6.6-3.9.6l-.6-.6s-1.4 0-1.4-.6c0 0-.6-1.4-1.2-2V51c0-1.3 0-3.3.6-4.6.6-1.9 1.3-3.2 2.6-4.5.6-.6 2-1.9 2-1.9 1.9-1.3 2.6-1.3 2.6-1.3 1.9 0 2.6 0 3.2.6.6.7.6 1.4.6 2.6v1.3l-.6 2c-.6.6-.6 1.2-1.3 1.9 0 0-.7 1.9-1.3 2.6-.6 1.3-2 3.2-3.2 4.5l2.6-1.3c1.9-.7 2.6-1.3 2.6-1.3 1.2-.6 1.9-.6 1.9-.6l1.3-1.3s.6 0 1.3.6l.7.7 1.2 1.2c.7.7.7 1.4.7 2l-.7 2-1.9 1.9c-.7 1.3-1.3 2.6-1.3 2.6-1.3 1.9-2 3.3-2.6 3.9-1.3 1.3-1.3 2.6-1.3 2.6-1.3 1.3-1.3 2.6-1.3 2.6l1.3 1.3s.7-.7 1.9-1.3c1.4-.6 2-2 3.3-3.2 1.3-1.4 2.6-3.3 3.9-4.6 1.3-2 2.5-3.2 3.8-5.2zM186 51v.6l.6 1.3s0 .7.7.7c.7-1.4 1.3-2.6 1.9-3.3l1.4-2.6c.6-1.3.6-2.5 1.2-2.5l-.6-1.3-1.3 1.3-1.9 1.2c-.7 1.3-.7 2-1.4 2.6z"/><path id="Path 276" fill-rule="evenodd" class="s1" d="M222.3 56.8h.6c0-.6.7-.6.7 0v1.3c-.7 0-.7.7-1.3 1.3-.6 1.3-2 2-2.6 3.2-1.3 1.4-2.6 2.6-3.9 4-.7 1.2-1.9 1.9-3.3 3.2-1.2 1.3-2.6 2-3.8 2.6-1.3.6-2.6 1.3-3.9 1.3-.7 0-1.3-.7-1.9-1.3l-1.3-1.3c-.7-.7-1.3-1.9-1.3-3.3 0-1.9.6-3.2 1.3-4.5.6-1.3 1.3-2.6 1.9-3.9 1.3-1.3 1.9-2.6 3.2-3.9.7-1.3 2-1.9 3.2-2.6.7-1.3 2-1.9 2.6-1.9 1.4-.7 2-1.3 2-1.3l1.3.6s.7 0 1.3.7c0 .6.6.6.6.6 0 2 .7 2.6.7 3.9l-.7 1.9c-.6 1.4-1.2 2-1.9 3.3-1.3.7-1.9 1.3-2.6 2.6-1.3.7-1.9 1.3-3.3 1.9-.6.7-1.9 1.4-1.9 1.4-1.3.6-1.9.6-1.9.6-.7.6-.7 1.3-.7 1.3v1.3l1.3.6c.7 0 1.3 0 3.2-1.2 1.4-.7 2.6-2 4-3.3 1.9-1.3 3.2-2.6 4.5-3.9 1.3-2 2.6-3.2 3.9-5.2zm-7.8-1.3l-.6.7c-.7 0-.7.6-.7.6l-1.3 1.3c-1.3 1.3-1.3 1.9-2 2.6-1.2 1.3-1.9 3.3-3.2 5.2 1.3-1.3 2.6-1.9 3.9-3.3 1.3-1.2 1.9-2.6 1.9-2.6 2-1.9 2-2.6 2-2.6.6-1.2 0-1.9 0-1.9z"/></g></svg>